<!-- created by svgstack.com | Attribution is required. --><svg width="48" height="48" viewBox="0 0 48 48" fill="none" xmlns="http://www.w3.org/2000/svg"><path fill-rule="evenodd" clip-rule="evenodd" d="M45.5 14.5C45.5 7.87259 40.1274 2.5 33.5 2.5L14.5 2.5C7.87258 2.5 2.49999 7.87258 2.49999 14.5L2.49999 33.5C2.49999 40.1274 7.87258 45.5 14.5 45.5L33.5 45.5C40.1274 45.5 45.5 40.1274 45.5 33.5L45.5 14.5ZM20.5422 22.6001C19.7393 23.3608 19.7393 24.6395 20.5422 25.4002L30.5816 34.9112C31.183 35.4809 31.2087 36.4303 30.6389 37.0317C30.0692 37.6331 29.1198 37.6588 28.5184 37.0891L18.479 27.578C16.427 25.6341 16.427 22.3662 18.479 20.4222L28.5184 10.9112C29.1198 10.3414 30.0692 10.3671 30.6389 10.9685C31.2087 11.5699 31.183 12.5193 30.5816 13.0891L20.5422 22.6001Z" fill="black"/></svg> 