<!-- created by svgstack.com | Attribution is required. --><svg width="48" height="48" viewBox="0 0 48 48" fill="none" xmlns="http://www.w3.org/2000/svg"><path fill-rule="evenodd" clip-rule="evenodd" d="M24 45.5C12.1259 45.5 2.5 35.8741 2.5 24C2.5 12.1259 12.1259 2.5 24 2.5C35.8741 2.5 45.5 12.1259 45.5 24C45.5 35.8741 35.8741 45.5 24 45.5ZM26.7854 24.3825C27.0182 24.1829 27.0182 23.8228 26.7854 23.6232L20.557 18.2846C19.928 17.7454 19.8552 16.7985 20.3943 16.1695C20.9335 15.5405 21.8804 15.4677 22.5094 16.0068L28.7378 21.3454C30.3674 22.7423 30.3674 25.2634 28.7378 26.6602L22.5094 31.9989C21.8804 32.538 20.9335 32.4651 20.3943 31.8362C19.8552 31.2072 19.928 30.2602 20.557 29.7211L26.7854 24.3825Z" fill="black"/></svg> 